<svg xmlns="http://www.w3.org/2000/svg" xmlns:xlink="http://www.w3.org/1999/xlink" width="26.319" height="17.559" viewBox="0 0 26.319 17.559">
  <defs>
    <style>
      .cls-1 {
        fill: none;
      }

      .cls-2 {
        clip-path: url(#clip-path);
      }

      .cls-3 {
        fill: #e61f19;
      }

      .cls-4 {
        fill: #fff;
      }
    </style>
    <clipPath id="clip-path">
      <rect id="長方形_26760" data-name="長方形 26760" class="cls-1" width="26.319" height="17.559"/>
    </clipPath>
  </defs>
  <g id="グループ_34401" data-name="グループ 34401" transform="translate(0 0)">
    <g id="グループ_34400" data-name="グループ 34400" class="cls-2" transform="translate(0 0)">
      <path id="パス_22627" data-name="パス 22627" class="cls-3" d="M23.286,17.106a113.387,113.387,0,0,1-20.252,0,2.785,2.785,0,0,1-2.5-2.285,34.236,34.236,0,0,1,0-12.082A2.785,2.785,0,0,1,3.034.453a113.37,113.37,0,0,1,20.253,0,2.785,2.785,0,0,1,2.5,2.285,34.239,34.239,0,0,1,0,12.082,2.786,2.786,0,0,1-2.5,2.285" transform="translate(0 0)"/>
      <path id="パス_22628" data-name="パス 22628" class="cls-4" d="M58.651,26.374l-5.81-3.354a.457.457,0,0,0-.686.4v6.708a.457.457,0,0,0,.686.4l5.81-3.354a.457.457,0,0,0,0-.791" transform="translate(-41.432 -18.237)"/>
    </g>
  </g>
</svg>
