<svg xmlns="http://www.w3.org/2000/svg" xmlns:xlink="http://www.w3.org/1999/xlink" width="102" height="102" viewBox="0 0 102 102">
  <defs>
    <style>
      .cls-1 {
        fill: none;
      }

      .cls-2 {
        fill: #fff;
        stroke: #cbcbcb;
      }

      .cls-3 {
        clip-path: url(#clip-path);
      }

      .cls-4, .cls-5 {
        fill: #1a1311;
      }

      .cls-4, .cls-6 {
        fill-rule: evenodd;
      }

      .cls-6 {
        fill: #005fac;
      }

      .cls-7 {
        stroke: none;
      }
    </style>
    <clipPath id="clip-path">
      <rect id="長方形_26768" data-name="長方形 26768" class="cls-1" width="55.002" height="5.5" transform="translate(0 0)"/>
    </clipPath>
  </defs>
  <g id="グループ_34415" data-name="グループ 34415" transform="translate(-1012.934 -4485.934)">
    <g id="楕円形_113" data-name="楕円形 113" class="cls-2" transform="translate(1013.934 4486.934)">
      <circle class="cls-7" cx="50" cy="50" r="50"/>
      <circle class="cls-1" cx="50" cy="50" r="50.5"/>
    </g>
    <g id="グループ_34428" data-name="グループ 34428" transform="translate(1035.796 4563.521)">
      <g id="グループ_34427" data-name="グループ 34427" class="cls-3" transform="translate(0.138 -7.587)">
        <path id="パス_22641" data-name="パス 22641" class="cls-4" d="M144.554.631h4.058v.733h-4.042a.948.948,0,0,0-.951.946h0V4.29a.948.948,0,0,0,.95.946h4.044v.732h-4.058a1.66,1.66,0,0,1-1.664-1.655V2.287A1.66,1.66,0,0,1,144.554.631" transform="translate(-105.959 -0.469)"/>
        <path id="パス_22642" data-name="パス 22642" class="cls-4" d="M191.89.631h4.44v.733H191.9a.474.474,0,0,0-.476.473h0V2.4a.474.474,0,0,0,.476.473h3.32a1.186,1.186,0,0,1,1.189,1.183v.734a1.186,1.186,0,0,1-1.189,1.183h-4.44V5.236h4.425a.474.474,0,0,0,.475-.473h0V4.074a.474.474,0,0,0-.475-.473h-3.32A1.186,1.186,0,0,1,190.7,2.418v-.6A1.186,1.186,0,0,1,191.89.631" transform="translate(-141.411 -0.469)"/>
        <rect id="長方形_26764" data-name="長方形 26764" class="cls-5" width="2.694" height="0.73" transform="translate(27.948 0.162)"/>
        <path id="パス_22643" data-name="パス 22643" class="cls-4" d="M96.112,5.969h-.724V1.362H92.333V.632h3.422a.356.356,0,0,1,.357.355Z" transform="translate(-68.468 -0.469)"/>
        <rect id="長方形_26765" data-name="長方形 26765" class="cls-5" width="4.68" height="0.73" transform="translate(31.685 2.394)"/>
        <path id="パス_22644" data-name="パス 22644" class="cls-4" d="M120.5,12.148v.7a.948.948,0,0,0,.95.946h4.044v.733h-4.058a1.66,1.66,0,0,1-1.664-1.655v-.72Z" transform="translate(-88.816 -9.024)"/>
        <path id="パス_22645" data-name="パス 22645" class="cls-4" d="M121.434.631h4.058v.733H121.45a.948.948,0,0,0-.951.946h0v.553h-.729V2.287A1.66,1.66,0,0,1,121.434.631" transform="translate(-88.814 -0.469)"/>
        <path id="パス_22646" data-name="パス 22646" class="cls-4" d="M168.073.631h4.058v.733h-4.042a.949.949,0,0,0-.951.946V4.29a.948.948,0,0,0,.951.946h4.042v.732h-4.058a1.66,1.66,0,0,1-1.664-1.655V2.287A1.66,1.66,0,0,1,168.073.631" transform="translate(-123.398 -0.469)"/>
        <path id="パス_22647" data-name="パス 22647" class="cls-4" d="M28.7.63V4.309a.923.923,0,0,0,.925.921h3.393v.738H29.627a1.66,1.66,0,0,1-1.664-1.655h0V.63Z" transform="translate(-20.736 -0.468)"/>
        <path id="パス_22648" data-name="パス 22648" class="cls-4" d="M6.679,1.172V5.5H5.941V1.444c0-.446-.193-.66-.575-.66a.955.955,0,0,0-.719.371L.979,5.5H0L4.029.729A1.772,1.772,0,0,1,5.452,0,1.141,1.141,0,0,1,6.676,1.054a1.11,1.11,0,0,1,0,.117" transform="translate(0 0)"/>
        <rect id="長方形_26766" data-name="長方形 26766" class="cls-5" width="4.68" height="0.73" transform="translate(13.447 2.394)"/>
        <path id="パス_22649" data-name="パス 22649" class="cls-4" d="M50.873.631h4.058v.733H50.888a.948.948,0,0,0-.951.946h0v.553h-.728V2.287A1.66,1.66,0,0,1,50.873.631" transform="translate(-36.49 -0.469)"/>
        <rect id="長方形_26767" data-name="長方形 26767" class="cls-5" width="0.729" height="2.375" transform="translate(12.719 3.124)"/>
        <path id="パス_22650" data-name="パス 22650" class="cls-4" d="M71.306,1.172V5.5h-.737V1.445c0-.446-.193-.66-.575-.66a.955.955,0,0,0-.719.371L65.607,5.5h-.979L68.657.729A1.772,1.772,0,0,1,70.08,0,1.142,1.142,0,0,1,71.3,1.055c0,.039,0,.078,0,.116" transform="translate(-47.924 0)"/>
      </g>
      <path id="パス_22651" data-name="パス 22651" class="cls-6" d="M15.135,16.857H21.3a5.778,5.778,0,0,0,4.986-3.714L28.27,7.556H43.037L39.643,17.1H28.69a5.775,5.775,0,0,0-4.985,3.712L19.029,33.969H9.052ZM.6,18a18.884,18.884,0,0,1,2.038-4.6h12.51l2.782-7.828H10.213A31.246,31.246,0,0,1,27.654,0C39.746,0,47.241,8.058,44.4,18S29.44,36,17.348,36-2.244,27.942.6,18Z" transform="translate(5.138 -49.587)"/>
    </g>
  </g>
</svg>
