<svg xmlns="http://www.w3.org/2000/svg" width="87.886" height="87.733" viewBox="0 0 87.886 87.733">
  <defs>
    <style>
      .cls-1 {
        fill: #191919;
      }
    </style>
  </defs>
  <g id="グループ_32349" data-name="グループ 32349" transform="translate(-444.383 -160.446)">
    <g id="グループ_5430" data-name="グループ 5430">
      <path id="パス_64758" data-name="パス 64758" class="cls-1" d="M503.3,209.757l5.46-10.14c.52-.936.676-1.2,3.068-5.46.988-1.82,1.092-2.028,1.82-3.328h-8.372a23.382,23.382,0,0,1-1.924,4.576l-1.508,3.016c-.26-2.912-.728-4.316-1.768-5.616-1.612-1.976-4.472-3.016-8.216-3.016a17.43,17.43,0,0,0-13.364,5.876,21.946,21.946,0,0,0-5.044,14.148c0,8.112,4.628,12.9,12.532,12.9a13.973,13.973,0,0,0,6.864-1.672,14.551,14.551,0,0,0,4.056-3.536,5.38,5.38,0,0,0,1.456,3.328,5.946,5.946,0,0,0,4.524,1.612c3.328,0,6.084-1.248,8.84-3.952l-2.964-5.148c-1.4,1.612-2.6,2.444-3.744,2.444-1.352,0-1.716-.936-1.716-4.628Zm-7.8-.52a25.158,25.158,0,0,1-1.612,2.34,15.271,15.271,0,0,1-1.976,2.288,6.49,6.49,0,0,1-4.836,2.184,6.146,6.146,0,0,1-3.172-.884c-1.456-.988-2.34-3.224-2.34-5.928a16.809,16.809,0,0,1,2.7-8.788c1.872-2.756,4.264-4.16,6.916-4.16,3.328,0,4.628,1.82,4.628,6.552C495.809,204.613,495.653,207.469,495.5,209.237Z"/>
      <path id="パス_64759" data-name="パス 64759" class="cls-1" d="M469.565,196.825h5.126v-3.08h-5.126V188.6h-3.1v5.148h-5.15v3.08h5.148v5.126h3.1Z"/>
    </g>
    <g id="グループ_32291" data-name="グループ 32291">
      <path id="パス_64760" data-name="パス 64760" class="cls-1" d="M452.4,202.062a35.813,35.813,0,0,1,7.83-20.225l-5.685-5.685a43.8,43.8,0,0,0-10.166,25.91Z"/>
      <path id="パス_64761" data-name="パス 64761" class="cls-1" d="M459.086,171.471l5.668,5.667a35.845,35.845,0,0,1,20.312-8.671v-8.021A43.819,43.819,0,0,0,459.086,171.471Z"/>
      <path id="パス_64762" data-name="パス 64762" class="cls-1" d="M491.584,160.446v8.021a35.838,35.838,0,0,1,20.316,8.672l5.667-5.667A43.817,43.817,0,0,0,491.584,160.446Z"/>
      <path id="パス_64763" data-name="パス 64763" class="cls-1" d="M452.588,208.58h-8.051a43.827,43.827,0,0,0,10.949,24.974l5.667-5.667A35.854,35.854,0,0,1,452.588,208.58Z"/>
      <path id="パス_64764" data-name="パス 64764" class="cls-1" d="M510.8,232.4a35.811,35.811,0,0,1-19.216,7.753v8.021a43.8,43.8,0,0,0,24.9-10.089Z"/>
      <path id="パス_64765" data-name="パス 64765" class="cls-1" d="M522.1,176.153l-5.684,5.686a35.815,35.815,0,0,1,7.829,20.226h8.02A43.8,43.8,0,0,0,522.1,176.153Z"/>
      <path id="パス_64766" data-name="パス 64766" class="cls-1" d="M465.852,232.4l-5.685,5.685a43.794,43.794,0,0,0,24.9,10.089v-8.021A35.82,35.82,0,0,1,465.852,232.4Z"/>
      <path id="パス_64767" data-name="パス 64767" class="cls-1" d="M524.065,208.58a35.851,35.851,0,0,1-8.565,19.3l5.668,5.667a43.836,43.836,0,0,0,10.948-24.972Z"/>
    </g>
  </g>
</svg>
