<svg xmlns="http://www.w3.org/2000/svg" width="26" height="17" viewBox="0 0 26 17">
  <defs>
    <style>
      .cls-1 {
        fill: #fff;
      }

      .cls-2 {
        fill: #2567c2;
      }
    </style>
  </defs>
  <g id="グループ_34421" data-name="グループ 34421" transform="translate(0.399 -0.162)">
    <path id="パス_22627" data-name="パス 22627" class="cls-1" d="M23,16.561A114.284,114.284,0,0,1,3,16.561,2.731,2.731,0,0,1,.531,14.349a32.5,32.5,0,0,1,0-11.7A2.731,2.731,0,0,1,3,.439,114.266,114.266,0,0,1,23,.439,2.731,2.731,0,0,1,25.47,2.651a32.5,32.5,0,0,1,0,11.7A2.731,2.731,0,0,1,23,16.561" transform="translate(-0.399 0.162)"/>
    <path id="パス_22628" data-name="パス 22628" class="cls-2" d="M58.435,26.318l-5.616-3.3a.442.442,0,0,0-.663.389v6.6a.442.442,0,0,0,.663.389l5.616-3.3a.453.453,0,0,0,0-.779" transform="translate(-41.557 -18.295)"/>
  </g>
</svg>
