<svg xmlns="http://www.w3.org/2000/svg" width="42" height="42" viewBox="0 0 42 42">
  <defs>
    <style>
      .cls-1 {
        fill: #ffffff;
      }
    </style>
  </defs>
  <g id="グループ_32299" data-name="グループ 32299" transform="translate(-578.447 -165.047)">
    <path id="パス_64776" data-name="パス 64776" class="cls-1" d="M585.45,170.308l2.827,2.827a16.91,16.91,0,0,1,9.559-4.088v-4A20.884,20.884,0,0,0,585.45,170.308Z" transform="translate(0.026)"/>
    <path id="パス_64777" data-name="パス 64777" class="cls-1" d="M601.836,165.123v4.042a16.916,16.916,0,0,1,8.672,3.97l2.827-2.827A20.9,20.9,0,0,0,601.836,165.123Z" transform="translate(0.084)"/>
    <path id="パス_64778" data-name="パス 64778" class="cls-1" d="M582.663,188.894h-4.042a20.9,20.9,0,0,0,5.111,11.017l2.827-2.827A16.929,16.929,0,0,1,582.663,188.894Z" transform="translate(0 0.122)"/>
    <path id="パス_64779" data-name="パス 64779" class="cls-1" d="M582.447,184.894a16.877,16.877,0,0,1,3.134-8.8l-2.853-2.853a20.86,20.86,0,0,0-4.281,11.653Z" transform="translate(0 0.043)"/>
    <path id="パス_64780" data-name="パス 64780" class="cls-1" d="M609.266,199.78a16.885,16.885,0,0,1-7.43,2.992v4.042a20.864,20.864,0,0,0,10.283-4.181Z" transform="translate(0.081 0.158)"/>
    <path id="パス_64781" data-name="パス 64781" class="cls-1" d="M589.519,199.78l-2.853,2.854a20.862,20.862,0,0,0,11.17,4.255v-4A16.878,16.878,0,0,1,589.519,199.78Z" transform="translate(0.029 0.158)"/>
    <path id="パス_64782" data-name="パス 64782" class="cls-1" d="M616.058,173.242l-2.853,2.853a16.885,16.885,0,0,1,3.133,8.8h4A20.849,20.849,0,0,0,616.058,173.242Z" transform="translate(0.109 0.043)"/>
    <path id="パス_64783" data-name="パス 64783" class="cls-1" d="M616.122,188.9a16.924,16.924,0,0,1-3.9,8.185l2.827,2.827a20.91,20.91,0,0,0,5.11-11.012Z" transform="translate(0.109 0.122)"/>
  </g>
</svg>
